<svg xmlns="http://www.w3.org/2000/svg" viewBox="0 0 24 24" width="24" height="24">
    <path d="M12 2.162c3.204 0 3.584.012 4.849.07 1.366.062 2.633.35 3.608 1.325.975.975 1.263 2.242 1.325 3.608.058 1.265.07 1.645.07 4.849s-.012 3.584-.07 4.849c-.062 1.366-.35 2.633-1.325 3.608-.975.975-2.242 1.263-3.608 1.325-1.265.058-1.645.07-4.849.07s-3.584-.012-4.849-.07c-1.366-.062-2.633-.35-3.608-1.325-.975-.975-1.263-2.242-1.325-3.608C2.174 15.584 2.162 15.204 2.162 12s.012-3.584.07-4.849c.062-1.366.35-2.633 1.325-3.608.975-.975 2.242-1.263 3.608-1.325C8.416 2.174 8.796 2.162 12 2.162M12 0C8.736 0 8.332.013 7.052.07 5.773.127 4.565.433 3.527 1.472 2.487 2.511 2.181 3.72 2.124 5 .067 6.279.054 6.683.054 10.001s.013 3.721.07 5c.057 1.28.363 2.487 1.403 3.527s2.247 1.346 3.527 1.403c1.28.057 1.684.07 5 .07s3.721-.013 5-.07c1.28-.057 2.487-.363 3.527-1.403s1.346-2.247 1.403-3.527c.057-1.28.07-1.684.07-5s-.013-3.721-.07-5c-.057-1.28-.363-2.487-1.403-3.527s-2.247-1.346-3.527-1.403C15.668.067 15.264.054 12 .054zM12 5.838A6.162 6.162 0 105.838 12 6.162 6.162 0 0012 5.838m0-1.838A8 8 0 114 12 8 8 0 0112 4zm4.406-2.96A1.406 1.406 0 1114.994 2.5 1.406 1.406 0 0116.406 1.94z"/>
</svg>
